<svg width="370.2645327960903" height="70.93928927416437" viewBox="0 0 370.2645327960903 70.93928927416437" fill="none"
     xmlns="http://www.w3.org/2000/svg">
    <g transform="matrix(0.9672762410195991,0,0,0.9672762410195991,-16.2124521931252,-1.925631732977731)"
       fill="#f06e30">
        <path d="M49.451,41.813c0.636,0,1.124,0.24,1.467,0.721c0.344,0.48,0.516,1.167,0.516,2.06h4.35c0-1.63-0.448-2.976-1.345-4.035  c-0.896-1.059-2.13-1.705-3.7-1.938v-2.771h-2.046v2.716c-1.63,0.155-2.935,0.698-3.912,1.642c-0.979,0.939-1.467,2.138-1.467,3.583  c0,0.868,0.136,1.606,0.412,2.214c0.273,0.61,0.669,1.146,1.183,1.609c0.517,0.462,1.129,0.87,1.841,1.222  c0.713,0.352,1.488,0.698,2.329,1.042s1.429,0.708,1.764,1.094c0.334,0.389,0.502,0.919,0.502,1.597  c0,0.614-0.168,1.093-0.502,1.435c-0.335,0.347-0.794,0.521-1.376,0.521c-0.798,0-1.415-0.256-1.847-0.767  c-0.435-0.513-0.65-1.255-0.65-2.235h-4.337c0,1.772,0.5,3.21,1.499,4.295c0.999,1.084,2.434,1.727,4.305,1.924v2.603h2.046v-2.588  c1.604-0.155,2.871-0.695,3.803-1.623c0.931-0.924,1.396-2.122,1.396-3.59c0-0.867-0.146-1.608-0.437-2.224  c-0.292-0.617-0.695-1.158-1.211-1.621c-0.515-0.464-1.124-0.877-1.833-1.242c-0.708-0.364-1.46-0.717-2.259-1.055  c-0.798-0.339-1.376-0.696-1.736-1.068c-0.36-0.373-0.541-0.877-0.541-1.513c0-0.626,0.156-1.116,0.47-1.474  C48.445,41.992,48.886,41.813,49.451,41.813z M83.508,41.015c-0.369-1.334-1.442-2.438-2.905-3.045  c0.266-0.158,0.564-0.303,0.903-0.428c0.776-0.288,1.174-1.15,0.887-1.928c-0.289-0.776-1.15-1.175-1.928-0.887  c-1.597,0.591-2.883,1.588-3.74,2.849c-1.271,0.227-2.507,0.798-3.621,1.664c-4.16-7.583-13.24-12.857-23.754-12.857  c-3.548,0-6.979,0.588-10.212,1.749c-3.07-2.424-7.381-3.011-12.168-1.632c-0.512,0.147-0.906,0.556-1.038,1.072  c-0.131,0.517,0.021,1.063,0.401,1.438c1.63,1.606,2.547,3.253,2.907,5.255c-2.58,2.274-3.559,4.449-4.288,6.07  c-0.456,1.012-0.785,1.743-1.322,2.209c-0.053,0.032-0.255,0.107-0.987,0.107l-1.019-0.012c-1.031,0-2.21,0.103-3.136,0.865  c-2.178,1.797-2.224,8.692-0.543,10.77c0.319,0.396,1.238,1.531,5.401,1.715c-0.342,0.396-0.798,0.732-1.313,0.94  c-0.37,0.148-0.665,0.439-0.82,0.807s-0.157,0.781-0.007,1.15c0.148,0.364,1.597,3.469,7.833,3.679  c0.819,0.867,2.523,2.526,4.622,3.751c-0.021,2.32,0.168,6.186,1.554,7.571c1.305,1.303,3.814,1.443,4.833,1.443  c1.28,0,3.591-0.203,4.688-1.562c0.54-0.668,0.919-2.046,1.164-3.282c3.422,0.383,6.844,0.194,10.118-0.535  c0.206,1.511,0.601,3.183,1.354,3.935c1.34,1.34,4.063,1.444,4.866,1.444c1.269,0,3.559-0.203,4.656-1.563  c1.573-1.946,1.559-7.464,1.46-9.998c4.631-4.129,7.172-9.514,7.172-15.239c0-2.235-0.397-4.394-1.129-6.431  c0.365-0.352,0.744-0.669,1.144-0.909c-0.061,1.834,0.672,3.458,1.979,4.321c0.648,0.43,1.417,0.643,2.19,0.642  c0.854,0,1.712-0.259,2.42-0.772C83.478,44.403,83.992,42.771,83.508,41.015z M65.858,61.964c-0.362,0.304-0.56,0.761-0.534,1.232  c0.189,3.428-0.078,7.839-0.753,8.675c-0.149,0.145-0.943,0.46-2.333,0.46c-1.528,0-2.542-0.368-2.693-0.507  c-0.266-0.398-0.604-2.235-0.709-3.853c-0.029-0.453-0.263-0.868-0.634-1.13c-0.372-0.262-0.842-0.339-1.276-0.216  c-3.835,1.1-7.955,1.352-12.022,0.698c-0.398-0.068-0.804,0.034-1.127,0.272c-0.324,0.238-0.539,0.598-0.597,0.995  c-0.202,1.417-0.576,2.97-0.762,3.275c-0.155,0.146-0.966,0.464-2.37,0.464c-1.517,0-2.515-0.368-2.696-0.549  c-0.445-0.566-0.766-3.567-0.672-6.297c0.021-0.588-0.306-1.134-0.833-1.396c-2.599-1.289-4.759-3.718-4.996-3.99  c-0.285-0.327-0.705-0.523-1.139-0.523c-2.457,0-3.911-0.503-4.74-0.98c1.237-1.079,2.01-2.585,2.01-4.1  c0-0.41-0.169-0.803-0.466-1.086s-0.704-0.43-1.108-0.412c-0.017,0.001-0.356,0.017-0.866,0.017c-2.61,0-4.01-0.396-4.264-0.627  c-0.749-0.932-0.648-5.732,0.118-6.567c0.146-0.12,0.559-0.181,1.229-0.181l1.019,0.012c1.028,0,2.097-0.101,2.938-0.829  c1.05-0.908,1.563-2.049,2.106-3.256c0.739-1.643,1.577-3.504,4.109-5.532c0.467-0.374,0.648-0.97,0.514-1.517  c-0.255-2.106-0.951-3.945-2.152-5.64c3.051-0.418,5.595,0.232,7.46,1.892c0.4,0.524,1.108,0.735,1.743,0.483  c3.136-1.241,6.496-1.87,9.988-1.87c12.779,0,23.177,8.59,23.177,19.148C72.526,53.585,70.158,58.355,65.858,61.964z M80.367,42.954  c-0.342,0.248-0.866,0.273-1.193,0.057c-0.462-0.306-0.714-1.133-0.612-2.011c0.014-0.113,0.04-0.281,0.092-0.482  c0.064,0.01,0.129,0.022,0.193,0.036c1.038,0.224,1.645,0.81,1.769,1.26C80.836,42.613,80.483,42.869,80.367,42.954z"></path>
    </g>
    <g transform="matrix(2.5321352543769784,0,0,2.5321352543769784,80.77310641895446,10.474705140433084)"
       fill="#333333">
        <path d="M17.607 10.9648 l-13.59 0 l0 2.1824 l9.0599 0 l0 2.3476 l-9.0599 0 l0 4.5299 l-2.3477 0 l0 -11.407 l15.938 0 l0 2.3476 z M35.277 17.557 l1.162 -0.017422 l0.034786 2.3242 l-1.1621 0.017402 c-0.18088 0.002754 -0.38542 0.0058984 -0.6087 0.0058984 c-1.614 0 -4.2026 -0.16008 -5.8378 -1.7712 c-0.72798 -0.71726 -1.1865 -1.629 -1.3698 -2.72 l-4.2054 0 l-0.016602 4.4896 l-2.3246 -0.0086328 l0.037402 -10.127 l0 -1.1635 l0.0043164 0 l0 -0.0043164 l1.1612 0.0043164 l10.951 0 c1.4728 0 3.6638 0.90678 3.6638 3.4048 c0 2.4982 -2.0362 3.405 -3.4048 3.405 l-3.4826 0 c0.12543 0.4252 0.32842 0.77924 0.61734 1.064 c1.1685 1.151 3.608 1.1146 4.7804 1.0969 z M23.3114 13.0714 l10.041 -0.000019531 c0.10148 -0.0035352 0.40426 -0.041718 0.6538 -0.17971 c0.21608 -0.11955 0.43686 -0.32006 0.43686 -0.90076 c0 -0.46692 -0.15799 -0.71972 -0.56382 -0.90166 c-0.36882 -0.16531 -0.77152 -0.17865 -0.77532 -0.17865 l-9.7922 0 l0 2.1608 z M56.067 8.487 l0.041758 5.7 c0.017129 1.2612 -0.49178 2.4856 -1.4332 3.448 c-0.9982 1.0203 -2.9408 2.242 -6.5268 2.2684 c-0.034786 0.0002539 -0.069706 0.00039062 -0.10424 0.00039062 c-2.7146 0 -4.9816 -0.77976 -6.3926 -2.201 c-0.96994 -0.97702 -1.4953 -2.2218 -1.4805 -3.5064 l-0.041992 -5.6918 l2.3476 -0.017402 l0.042246 5.7166 l-0.00013672 0.012813 c-0.0096876 0.66232 0.26668 1.2957 0.799 1.832 c0.98014 0.98734 2.6886 1.5215 4.8136 1.507 c2.1676 -0.015957 3.8956 -0.57078 4.866 -1.5626 c0.50916 -0.5204 0.77336 -1.1346 0.76394 -1.7765 l0 -0.0083789 l-0.04211 -5.7036 z M75.25 14.394400000000001 c-0.019883 1.3657 -0.00015625 4.4302 0.00023438 4.4608 l0.0077148 1.1699 l-7.8979 0 c-2.3734 0 -4.3588 -0.53114 -5.7416 -1.5357 c-1.3856 -1.0067 -2.1486 -2.467 -2.1486 -4.112 c0 -1.3641 0.51466 -2.5964 1.4885 -3.563 c1.3944 -1.3842 3.6104 -2.1058 6.4102 -2.0846 c1.7076 0.012559 6.6666 0.00013672 6.7164 0 l1.1622 -0.0030078 l0.005879 2.3246 l-1.1622 0.0030078 c-0.050098 0.00013672 -5.0206 0.012695 -6.7396 0 c-2.1376 -0.016875 -3.824 0.4851 -4.7556 1.4098 c-0.53204 0.52812 -0.80174 1.1717 -0.80174 1.9133 c0 2.0496 2.1326 3.323 5.5658 3.323 l5.5599 0 c-0.0024804 -0.63696 -0.0043164 -1.4395 -0.0024804 -2.1608 l-4.4771 0 l0 -2.3246 l6.8269 0 z M86.7954 7.711 l9.1766 12.19 l-2.9508 0 l-2.566 -3.3974 l-7.3197 0 l-2.5286 3.3974 l-2.9177 0 z M84.8962 14.1556 l3.7983 0 l-1.8992 -2.5322 z M100.737 17.619 l13.59 0 l0 2.3477 l-15.938 0 l0 -11.407 l2.3477 0 l0 9.0597 z"></path>
    </g>
</svg>